<svg width="18" height="15" viewBox="0 0 18 15" fill="none" xmlns="http://www.w3.org/2000/svg">
<path d="M16.417 1.679C17.447 2.773 18 4 18 5.989C18 9.489 15.543 12.626 11.97 14.177L11.077 12.799C14.412 10.995 15.064 8.654 15.324 7.178C14.787 7.456 14.084 7.553 13.395 7.489C11.591 7.322 10.169 5.841 10.169 4C10.169 3.07174 10.5378 2.1815 11.1942 1.52513C11.8505 0.868749 12.7408 0.5 13.669 0.5C14.742 0.5 15.768 0.99 16.417 1.679ZM6.41704 1.679C7.44704 2.773 8.00004 4 8.00004 5.989C8.00004 9.489 5.54304 12.626 1.97004 14.177L1.07704 12.799C4.41204 10.995 5.06404 8.654 5.32404 7.178C4.78704 7.456 4.08404 7.553 3.39504 7.489C1.59104 7.322 0.170044 5.841 0.170044 4C0.170044 3.07174 0.538793 2.1815 1.19517 1.52513C1.85155 0.868749 2.74179 0.5 3.67004 0.5C4.74304 0.5 5.76904 0.99 6.41804 1.679H6.41704Z" fill="#FE6201"/>
</svg>
